<?xml version="1.0" encoding="UTF-8" standalone="no"?>
<!-- Created with Inkscape (http://www.inkscape.org/) -->

<svg
   xmlns:dc="http://purl.org/dc/elements/1.1/"
   xmlns:cc="http://creativecommons.org/ns#"
   xmlns:rdf="http://www.w3.org/1999/02/22-rdf-syntax-ns#"
   xmlns:svg="http://www.w3.org/2000/svg"
   xmlns="http://www.w3.org/2000/svg"
   xmlns:sodipodi="http://sodipodi.sourceforge.net/DTD/sodipodi-0.dtd"
   xmlns:inkscape="http://www.inkscape.org/namespaces/inkscape"
   width="1000"
   height="1000"
   viewBox="0 0 264.58333 264.58334"
   version="1.1"
   id="svg251"
   inkscape:version="0.92.1 r15371"
   
   inkscape:export-xdpi="96"
   inkscape:export-ydpi="96">
  <title
     id="title4493">Debamax logo</title>
  <sodipodi:namedview
     id="base"
     pagecolor="#ffffff"
     bordercolor="#666666"
     borderopacity="1.0"
     inkscape:pageopacity="0.0"
     inkscape:pageshadow="2"
     inkscape:zoom="0.49497475"
     inkscape:cx="142.62288"
     inkscape:cy="528.46341"
     inkscape:document-units="mm"
     inkscape:current-layer="svg251"
     showgrid="false"
     inkscape:window-width="1920"
     inkscape:window-height="1027"
     inkscape:window-x="0"
     inkscape:window-y="31"
     inkscape:window-maximized="1"
     fit-margin-top="10"
     fit-margin-left="10"
     fit-margin-right="10"
     fit-margin-bottom="10"
     units="px"
     scale-x="0.8" />
  <defs
     id="defs245" />
  <metadata
     id="metadata248">
    <rdf:RDF>
      <cc:Work
         rdf:about="">
        <dc:format>image/svg+xml</dc:format>
        <dc:type
           rdf:resource="http://purl.org/dc/dcmitype/StillImage" />
        <dc:title>Debamax logo</dc:title>
        <dc:date>2017</dc:date>
        <dc:creator>
          <cc:Agent>
            <dc:title>Cyril Brulebois</dc:title>
          </cc:Agent>
        </dc:creator>
      </cc:Work>
    </rdf:RDF>
  </metadata>
  <g
     id="layer1"
     inkscape:groupmode="layer"
     inkscape:label="Layer 1"
     transform="translate(-12.59151,23.67486)" />
  <g
     id="g337"
     transform="matrix(1.5278641,0,0,1.5278641,-9.7040419,-101.00057)">
    <path
       id="path321"
       sodipodi:type="arc"
       sodipodi:start="0"
       sodipodi:ry="21"
       sodipodi:rx="21"
       sodipodi:open="true"
       sodipodi:end="3.1415927"
       sodipodi:cy="148.5"
       sodipodi:cx="105"
       style="fill:none;stroke:#000000;stroke-width:5.25"
       d="m 126,148.5 a 21,21 0 0 1 -10.5,18.18653 21,21 0 0 1 -21.000001,0 A 21,21 0 0 1 84,148.5" />
    <path
       id="path323"
       sodipodi:type="arc"
       sodipodi:start="5.4977871"
       sodipodi:ry="29.4"
       sodipodi:rx="29.4"
       sodipodi:open="true"
       sodipodi:end="2.3561945"
       sodipodi:cy="148.5"
       sodipodi:cx="105"
       style="fill:none;stroke:#1e010b;stroke-width:5.25"
       d="m 125.78894,127.71106 a 29.4,29.4 0 0 1 7.60928,28.39822 29.4,29.4 0 0 1 -20.78894,20.78894 29.4,29.4 0 0 1 -28.398219,-7.60928" />
    <path
       id="path325"
       sodipodi:type="arc"
       sodipodi:start="4.712389"
       sodipodi:ry="37.799999"
       sodipodi:rx="37.799999"
       sodipodi:open="true"
       sodipodi:end="1.5707963"
       sodipodi:cy="148.5"
       sodipodi:cx="105"
       style="fill:none;stroke:#3d0217;stroke-width:5.25"
       d="m 105,110.7 a 37.799999,37.799999 0 0 1 37.8,37.8 37.799999,37.799999 0 0 1 -37.8,37.8" />
    <path
       id="path327"
       sodipodi:type="arc"
       sodipodi:start="3.9269908"
       sodipodi:ry="46.200001"
       sodipodi:rx="46.200001"
       sodipodi:open="true"
       sodipodi:end="0.78539816"
       sodipodi:cy="148.5"
       sodipodi:cx="105"
       style="fill:none;stroke:#5c0423;stroke-width:5.25"
       d="m 72.331666,115.83167 a 46.200001,46.200001 0 0 1 44.625774,-11.95744 46.200001,46.200001 0 0 1 32.66833,32.66833 46.200001,46.200001 0 0 1 -11.95744,44.62577" />
    <path
       id="path329"
       sodipodi:type="arc"
       sodipodi:start="3.1415927"
       sodipodi:ry="54.599998"
       sodipodi:rx="54.599998"
       sodipodi:open="true"
       sodipodi:end="6.2831853"
       sodipodi:cy="148.5"
       sodipodi:cx="105"
       style="fill:none;stroke:#7a052f;stroke-width:5.25"
       d="M 50.400002,148.5 A 54.599998,54.599998 0 0 1 105,93.900002 54.599998,54.599998 0 0 1 159.6,148.5" />
    <path
       id="path331"
       sodipodi:type="arc"
       sodipodi:start="2.3561945"
       sodipodi:ry="63"
       sodipodi:rx="63"
       sodipodi:open="true"
       sodipodi:end="5.4977871"
       sodipodi:cy="148.5"
       sodipodi:cx="105"
       style="fill:none;stroke:#99073b;stroke-width:5.25"
       d="m 60.452272,193.04773 a 63,63 0 0 1 0,-89.09546 63,63 0 0 1 89.095458,0" />
    <path
       id="path333"
       sodipodi:type="arc"
       sodipodi:start="1.5707963"
       sodipodi:ry="71.400002"
       sodipodi:rx="71.400002"
       sodipodi:open="true"
       sodipodi:end="4.712389"
       sodipodi:cy="148.5"
       sodipodi:cx="105"
       style="fill:none;stroke:#b80847;stroke-width:5.25"
       d="m 105,219.9 a 71.400002,71.400002 0 0 1 -61.834215,-35.7 71.400002,71.400002 0 0 1 0,-71.4 A 71.400002,71.400002 0 0 1 105,77.099998" />
    <path
       id="path335"
       sodipodi:type="arc"
       sodipodi:start="0.78539816"
       sodipodi:ry="79.800003"
       sodipodi:rx="79.800003"
       sodipodi:open="true"
       sodipodi:end="3.9269908"
       sodipodi:cy="148.5"
       sodipodi:cx="105"
       style="fill:none;stroke:#d70a53;stroke-width:5.25"
       d="m 161.42712,204.92712 a 79.800003,79.800003 0 0 1 -112.854243,0 79.800003,79.800003 0 0 1 -10e-7,-112.854242" />
  </g>
</svg>
